<svg width="60" height="60" viewBox="0 0 25 24" fill="none" xmlns="http://www.w3.org/2000/svg">
<mask id="path-1-inside-1_4276_22796" fill="white">
<path fill-rule="evenodd" clip-rule="evenodd" d="M22.5 12C22.5 17.5228 18.0228 22 12.5 22C6.97715 22 2.5 17.5228 2.5 12C2.5 6.47715 6.97715 2 12.5 2C18.0228 2 22.5 6.47715 22.5 12ZM24.5 12C24.5 18.6274 19.1274 24 12.5 24C5.87258 24 0.5 18.6274 0.5 12C0.5 5.37258 5.87258 0 12.5 0C19.1274 0 24.5 5.37258 24.5 12ZM12.5 17.5C15.5376 17.5 18 15.0376 18 12C18 8.96243 15.5376 6.5 12.5 6.5C9.46243 6.5 7 8.96243 7 12C7 15.0376 9.46243 17.5 12.5 17.5Z"/>
</mask>
<path fill-rule="evenodd" clip-rule="evenodd" d="M22.5 12C22.5 17.5228 18.0228 22 12.5 22C6.97715 22 2.5 17.5228 2.5 12C2.5 6.47715 6.97715 2 12.5 2C18.0228 2 22.5 6.47715 22.5 12ZM24.5 12C24.5 18.6274 19.1274 24 12.5 24C5.87258 24 0.5 18.6274 0.5 12C0.5 5.37258 5.87258 0 12.5 0C19.1274 0 24.5 5.37258 24.5 12ZM12.5 17.5C15.5376 17.5 18 15.0376 18 12C18 8.96243 15.5376 6.5 12.5 6.5C9.46243 6.5 7 8.96243 7 12C7 15.0376 9.46243 17.5 12.5 17.5Z" fill="#FA8C16"/>
<path d="M12.5 24C19.1274 24 24.5 18.6274 24.5 12H20.5C20.5 16.4183 16.9183 20 12.5 20V24ZM0.5 12C0.5 18.6274 5.87258 24 12.5 24V20C8.08172 20 4.5 16.4183 4.5 12H0.5ZM12.5 0C5.87258 0 0.5 5.37258 0.5 12H4.5C4.5 7.58172 8.08172 4 12.5 4V0ZM24.5 12C24.5 5.37258 19.1274 0 12.5 0V4C16.9183 4 20.5 7.58172 20.5 12H24.5ZM12.5 26C20.232 26 26.5 19.732 26.5 12H22.5C22.5 17.5228 18.0228 22 12.5 22V26ZM-1.5 12C-1.5 19.732 4.76801 26 12.5 26V22C6.97715 22 2.5 17.5228 2.5 12H-1.5ZM12.5 -2C4.76801 -2 -1.5 4.26801 -1.5 12H2.5C2.5 6.47715 6.97715 2 12.5 2V-2ZM26.5 12C26.5 4.26801 20.232 -2 12.5 -2V2C18.0228 2 22.5 6.47715 22.5 12H26.5ZM16 12C16 13.933 14.433 15.5 12.5 15.5V19.5C16.6421 19.5 20 16.1421 20 12H16ZM12.5 8.5C14.433 8.5 16 10.067 16 12H20C20 7.85786 16.6421 4.5 12.5 4.5V8.5ZM9 12C9 10.067 10.567 8.5 12.5 8.5V4.5C8.35786 4.5 5 7.85786 5 12H9ZM12.5 15.5C10.567 15.5 9 13.933 9 12H5C5 16.1421 8.35786 19.5 12.5 19.5V15.5Z" fill="#FA8C16" mask="url(#path-1-inside-1_4276_22796)"/>
</svg>
